<svg width="26" height="17" viewBox="0 0 26 17" fill="none" xmlns="http://www.w3.org/2000/svg">
<path fill-rule="evenodd" clip-rule="evenodd" d="M24 1H2C1.44772 1 1 1.44772 1 2V15C1 15.5523 1.44772 16 2 16H24C24.5523 16 25 15.5523 25 15V2C25 1.44772 24.5523 1 24 1ZM2 0C0.895431 0 0 0.89543 0 2V15C0 16.1046 0.89543 17 2 17H24C25.1046 17 26 16.1046 26 15V2C26 0.895431 25.1046 0 24 0H2Z" fill="#FF6B6B"/>
<rect y="4" width="26" height="5" fill="#FF6B6B"/>
<rect x="2" y="13" width="5" height="1" fill="#FF6B6B"/>
<rect x="9" y="13" width="6" height="1" fill="#FF6B6B"/>
</svg>
